<?xml version="1.0" encoding="UTF-8"?>
<svg id="Layer_2" data-name="Layer 2" xmlns="http://www.w3.org/2000/svg" viewBox="0 0 3871.46 711.67">
  <defs>
    <style>
      .cls-1 {
        fill: #fff;
      }

      .cls-2 {
        fill: #ed0f24;
      }
    </style>
  </defs>
  <g id="Layer_1-2" data-name="Layer 1">
    <g>
      <g>
        <path class="cls-2" d="M2787.3,409.42c-13.54-15.95-29.58-27.69-48.12-35.31-18.53-7.58-42.06-14.98-70.58-22.09-28.06-7.12-48.76-14.14-62.03-21.03-13.31-6.89-19.97-17.01-19.97-30.32,0-11.88,4.85-21.12,14.61-27.83,9.75-6.61,23.62-9.98,41.69-9.98,19.51,0,35.08,4.67,46.73,13.91,11.65,9.29,18.17,21.77,19.6,37.44h95.54c-2.82-39.94-18.3-71.64-46.31-95.17-28.06-23.53-65.63-35.31-112.69-35.31-31.85,0-59.53,5.22-83.06,15.72-23.53,10.45-41.6,24.68-54.22,42.76-5.69,8.18-10.08,16.73-13.22,25.7l16.64,33,51.07,101.41c18.07,6.98,40.68,13.73,67.81,20.29,28.52,7.63,49.32,14.61,62.4,21.03,13.08,6.43,19.6,16.04,19.6,28.89,0,11.88-5.32,21.63-16.04,29.26-10.68,7.58-25.56,11.37-44.56,11.37s-35.78-4.95-48.86-14.93c-3.66-2.79-6.88-5.79-9.66-9-11.25-12.95-24.67-23.84-40.47-30.52l-4.5-1.9c-43.26-18.16-91.94-18.03-135.01.42h0c-21.12,9.01-40.73,21.07-58.94,35.06-14.42,11.08-32.57,16.62-54.44,16.62-25.7,0-47.33-8.09-64.9-24.27-17.61-16.13-27.59-38.5-29.95-67.02h186.18l26.58-53.43,48.35-97.34c-15.85-24.91-36.98-44.56-63.23-58.84-29.72-16.18-63.37-24.27-100.9-24.27s-73.45,8.32-103.4,24.96c-29.95,16.64-53.25,40.4-69.89,71.32-16.64,30.88-24.96,66.79-24.96,107.65s8.46,76.08,25.33,106.96c16.87,30.92,40.4,54.82,70.58,71.69,30.18,16.87,64.29,25.28,102.33,25.28,47.05,0,86.76-12.2,119.07-36.7.43-.33.86-.65,1.28-.98,36.86-28.36,88.29-26.21,122.59,5.19,7.69,7.04,14.82,12.44,20.52,15.01,25.7,11.65,54.68,17.47,86.99,17.47s58.84-5.08,82.37-15.3c23.53-10.21,41.6-24.36,54.22-42.43,12.57-18.07,18.9-38.5,18.9-61.34-.51-26.11-7.49-47.15-21.08-63.09ZM2237.17,288.19c16.87-14.98,37.67-22.46,62.4-22.46,26.16,0,48.26,7.77,66.33,23.2,18.07,15.44,27.32,36.01,27.83,61.66h-187.57c3.79-26.62,14.14-47.42,31.01-62.4Z"/>
        <g>
          <path class="cls-1" d="M1116.08,377.92c-16.38-7.61-37.52-15.23-63.42-22.86-19.05-5.71-33.81-10.76-44.28-15.14-10.48-4.37-19.24-10.09-26.28-17.14-7.05-7.04-10.57-15.9-10.57-26.57,0-15.23,4.66-26.86,14-34.85,9.33-8,21.8-12,37.42-12,17.9,0,32.28,4.48,43.14,13.43,10.86,8.95,16.66,20.29,17.43,34h87.99c-2.67-35.8-16.86-63.7-42.57-83.7-25.71-20-59.13-30-100.27-30-27.43,0-51.81,4.67-73.13,14-21.34,9.34-37.91,22.77-49.71,40.28-11.81,17.53-17.71,38.1-17.71,61.71,0,25.14,5.8,45.23,17.43,60.28,11.61,15.05,25.51,26.28,41.71,33.71,16.19,7.43,37.23,14.95,63.14,22.57,19.04,5.34,34,10.2,44.85,14.57,10.85,4.39,19.9,10.38,27.14,18,7.23,7.62,10.86,17.34,10.86,29.14,0,14.48-5.34,26.19-16,35.14-10.67,8.96-25.34,13.43-44,13.43s-32.67-4.76-43.14-14.28c-10.48-9.52-16.29-22.47-17.43-38.85h-85.71c0,.35.01.7.02,1.04.55,23.94,7.21,44.73,19.98,62.38,12.94,17.91,30.57,31.62,52.85,41.14,22.28,9.52,47.32,14.28,75.13,14.28,29.33,0,54.66-5.43,75.99-16.28,21.33-10.85,37.51-25.42,48.56-43.71,11.04-18.28,16.57-38.08,16.57-59.42,0-24.75-5.91-44.75-17.71-59.99-11.81-15.23-25.91-26.66-42.28-34.28Z"/>
          <rect class="cls-1" x="2021" y="119.12" width="83.2" height="473.31"/>
          <path class="cls-1" d="M3100.04,250.33c-20.86-11.7-44.69-17.56-71.51-17.56-23.42,0-44.69,4.37-63.85,13.09-19.16,8.73-34.48,20.75-45.97,36.07V119.12h-89.39v472.48h89.39v-195.38c0-28.09,7.12-49.69,21.39-64.81,14.26-15.1,33.73-22.66,58.42-22.66s43.42,7.56,57.46,22.66c14.05,15.11,21.07,36.72,21.07,64.81v195.38h89.39v-207.51c0-31.93-5.86-59.27-17.56-82.05-11.71-22.76-27.99-40.01-48.85-51.72Z"/>
          <g>
            <path class="cls-1" d="M3256.27,119.12c-14.28,0-26.16,4.58-35.59,13.64-9.48,9.06-14.19,20.34-14.19,33.88s4.71,24.77,14.19,33.83c9.43,9.06,21.31,13.64,35.59,13.64s26.16-4.58,35.59-13.64c9.48-9.06,14.19-20.34,14.19-33.83s-4.71-24.82-14.19-33.88c-9.43-9.06-21.31-13.64-35.59-13.64Z"/>
            <rect class="cls-1" x="3215.18" y="248.42" width="81.03" height="343.9"/>
            <path class="cls-1" d="M3742.01,315.02v-66.61h-116.7c25.31-4.61,44.51-26.72,44.51-53.36v-11.39h-80.83v64.75h-122v-13.31c0-18.12,3.88-30.69,11.6-37.62,7.72-6.93,21.4-10.22,41.09-9.85v-68.32c-45.16-1.15-78.95,7.53-101.32,26.07-22.37,18.49-33.56,47.47-33.56,86.85v16.18h-36.47v66.61h36.47v277.3h82.18v-277.3h121.61v177.74c0,66.37,34.16,99.56,102.47,99.56h50.94v-68.27h-37.63c-12.39,0-21.12-2.45-26.35-7.26-5.22-4.81-7.81-12.62-7.81-23.43v-178.34h71.78Z"/>
          </g>
          <path class="cls-1" d="M1355.89,508.29c-55.75-7.31-99.83-53.24-104.8-109.25-6.51-73.34,52.19-134.22,123.73-132.6,39.77.9,74.64,20.96,96.13,51.09l1.37,2.15,92.65-.02c-29.39-82.82-110.71-141.68-205.43-136.08-99.62,5.89-181.38,84.55-191.15,183.86-11.78,119.74,80.97,222.39,199.03,225.07,90.55,2.05,168.84-55.35,197.57-136.4,0,0-89.44,0-92.52.05-24.75,36.29-68.59,58.44-116.6,52.14Z"/>
          <path class="cls-1" d="M1877.16,183.02v40.67c-33.91-25.07-75.71-39.97-121.12-39.97-89.67,0-165.84,57.78-193.3,138.16-.42,1.2-.83,2.45-1.2,3.7-6.33,19.64-9.75,40.63-9.75,62.4s3.56,43.59,10.12,63.6c.23.74.46,1.48.69,2.17,27.41,80.56,103.67,138.48,193.44,138.48,45.4,0,87.2-14.9,121.12-39.93v40.07h83.2V183.02h-83.2ZM1756.05,509.03c-71.23,0-128.31-61.81-120.3-134.69,6.1-55.55,50.75-100.35,106.29-106.62,72.99-8.25,135.07,48.9,135.07,120.26,0,66.79-54.31,121.05-121.06,121.05Z"/>
          <circle class="cls-1" cx="3837.71" cy="557.85" r="33.75"/>
        </g>
      </g>
      <g>
        <path class="cls-2" d="M670.78,238.01V0h-251.57C278.48,0,145.01,62.49,54.9,170.59L0,236.44l195.54,238.01h0c.44-131.45,107.35-237.66,238.8-237.22l236.43.78Z"/>
        <path class="cls-2" d="M0,473.66v238.01h213.29c164.99,0,321.45-73.27,427.1-199.99l30.39-36.45-195.54-238.01h0c-.44,131.45-107.35,237.66-238.8,237.22l-236.43-.78Z"/>
      </g>
    </g>
  </g>
</svg>